<?xml version="1.0" standalone="no"?>
<!DOCTYPE svg PUBLIC "-//W3C//DTD SVG 20010904//EN"
 "http://www.w3.org/TR/2001/REC-SVG-20010904/DTD/svg10.dtd">
<svg version="1.0" xmlns="http://www.w3.org/2000/svg"
 width="1024.000000pt" height="1024.000000pt" viewBox="0 0 1024.000000 1024.000000"
 preserveAspectRatio="xMidYMid meet">
<metadata>
Created by potrace 1.16, written by Peter Selinger 2001-2019
</metadata>
<g transform="translate(0.000000,1024.000000) scale(0.100000,-0.100000)"
fill="#000000" stroke="none">
<path d="M2500 10097 l0 -43 88 4 c69 3 100 10 149 33 34 15 64 33 68 39 4 7
-44 10 -149 10 l-156 0 0 -43z"/>
<path d="M2920 10110 c0 -29 1 -30 48 -30 51 0 76 -16 83 -54 4 -17 16 -18
147 -20 l142 -2 0 68 0 68 -210 0 -210 0 0 -30z"/>
<path d="M3421 10093 c1 -43 2 -45 9 -18 4 17 11 38 15 48 5 12 2 17 -9 17
-13 0 -16 -10 -15 -47z"/>
<path d="M3546 10124 c-3 -9 -6 -18 -6 -21 0 -11 154 10 167 23 12 12 2 14
-70 14 -68 0 -86 -3 -91 -16z"/>
<path d="M4740 10128 c-30 -5 -91 -7 -135 -5 -44 2 -91 0 -105 -5 -40 -15
-286 -46 -545 -68 -71 -6 -166 -15 -210 -21 -44 -5 -133 -12 -197 -15 l-118
-7 0 -48 0 -49 -77 1 c-43 0 -100 4 -126 8 -27 4 -59 6 -73 3 -20 -4 -24 -10
-24 -43 l0 -39 -56 0 c-59 0 -83 15 -84 53 0 9 -5 27 -12 40 -6 12 -14 29 -18
37 -5 9 -17 14 -31 11 -13 -2 -99 -4 -191 -6 -211 -3 -238 -8 -238 -40 0 -14
5 -25 10 -25 6 0 10 -9 10 -20 0 -11 5 -20 10 -20 13 0 13 -77 0 -85 -16 -10
15 -35 44 -35 24 0 26 -4 26 -40 0 -30 -7 -48 -25 -68 -14 -15 -25 -35 -25
-45 0 -9 -11 -22 -25 -27 -24 -9 -25 -12 -25 -115 0 -58 2 -105 5 -105 2 0 46
25 97 56 110 67 459 243 609 307 467 199 1008 330 1524 368 176 13 601 7 825
-11 471 -38 1056 -188 1474 -379 38 -17 73 -31 77 -31 5 0 9 29 9 65 l0 65
-40 0 c-33 0 -40 4 -44 23 -3 12 -14 63 -25 114 -12 50 -21 119 -21 152 l0 61
-97 0 -98 -1 38 -20 c33 -17 37 -23 37 -59 l0 -40 -46 0 c-27 0 -51 -6 -60
-15 -12 -11 -39 -15 -107 -15 -108 0 -142 15 -179 79 -18 32 -29 41 -50 41
-37 0 -58 -10 -58 -26 0 -10 -15 -14 -60 -14 l-60 0 0 35 0 35 -55 0 c-48 0
-55 -2 -55 -20 0 -18 -7 -20 -77 -20 -54 0 -94 6 -131 20 -50 19 -75 20 -595
19 -298 -1 -567 -6 -597 -11z"/>
<path d="M8485 10130 c-24 -9 -118 -34 -192 -51 l-53 -11 0 -209 0 -209 -37
-2 c-38 -1 -38 -1 7 -7 l45 -6 3 -82 c3 -78 2 -83 -18 -83 -19 0 -20 -6 -20
-125 l0 -125 -80 0 -80 0 0 209 c0 158 3 211 13 214 6 3 -57 6 -141 6 l-153 1
3 -27 c2 -20 12 -29 42 -40 61 -20 66 -29 66 -99 l0 -64 -51 0 c-28 0 -60 5
-72 11 -46 24 -97 71 -97 89 0 11 -16 28 -40 41 -34 19 -40 28 -40 56 l0 33
-227 0 -228 -1 180 -88 c460 -228 940 -566 1288 -910 l117 -116 0 152 0 151
-122 4 c-149 4 -163 11 -180 86 -6 30 -16 59 -22 66 -6 6 -21 32 -34 56 -19
38 -22 61 -22 153 0 69 4 107 11 107 15 0 39 26 39 44 0 12 16 16 78 18 l77 3
3 89 c2 74 7 93 26 120 22 29 24 40 27 211 2 99 2 217 1 263 l-2 82 -47 -1
c-27 0 -57 -4 -68 -9z"/>
<path d="M8703 10124 c-3 -9 -3 -89 1 -179 5 -110 4 -164 -3 -166 -6 -2 -13
-20 -17 -39 l-5 -35 20 24 c20 22 21 35 21 217 0 107 -2 194 -5 194 -3 0 -8
-7 -12 -16z"/>
<path d="M4670 9824 c-282 -30 -677 -107 -916 -180 -134 -40 -400 -139 -544
-201 -640 -277 -1255 -728 -1691 -1238 -603 -705 -990 -1615 -1090 -2565 -28
-265 -31 -742 -5 -975 109 -1001 463 -1814 1133 -2603 393 -463 860 -830 1403
-1101 615 -307 1168 -456 1860 -502 197 -13 541 -8 735 11 569 55 1146 218
1660 470 501 246 924 559 1288 955 532 579 894 1195 1116 1900 198 631 249
1404 136 2075 -87 517 -223 943 -441 1385 -386 783 -986 1431 -1744 1882 -634
377 -1283 596 -2010 679 -202 23 -709 28 -890 8z m685 -104 c633 -43 1222
-200 1790 -480 355 -174 682 -385 960 -619 196 -164 502 -480 636 -656 412
-539 694 -1140 838 -1785 97 -438 128 -744 118 -1185 -12 -499 -91 -925 -259
-1385 -162 -443 -362 -812 -656 -1210 -207 -279 -504 -597 -754 -806 -511
-425 -1173 -749 -1858 -908 -389 -90 -671 -121 -1080 -120 -618 1 -1138 100
-1715 327 -402 157 -783 379 -1149 668 -145 115 -491 453 -607 594 -624 756
-952 1494 -1075 2417 -22 165 -30 700 -15 925 64 911 416 1813 988 2531 204
257 513 552 808 774 532 399 1210 703 1867 837 126 26 437 69 574 80 157 12
416 12 589 1z"/>
<path d="M4685 9545 c-565 -53 -1117 -217 -1620 -479 -147 -77 -365 -205 -450
-264 -275 -192 -360 -259 -543 -426 -337 -307 -581 -620 -820 -1049 -199 -358
-320 -659 -422 -1052 -107 -413 -143 -708 -143 -1180 -1 -491 52 -839 194
-1285 86 -269 139 -398 259 -635 404 -794 1014 -1445 1749 -1863 528 -300
1107 -484 1756 -559 196 -22 702 -25 890 -5 739 79 1444 325 2012 703 347 231
709 559 971 882 270 333 530 766 697 1162 165 389 273 849 305 1300 42 585
-45 1251 -234 1800 -159 463 -352 825 -661 1240 -295 397 -796 832 -1274 1105
-539 309 -1077 495 -1671 579 -299 42 -705 53 -995 26z m313 -172 l-3 -78 -82
-3 -83 -3 0 38 c0 21 -3 55 -6 75 l-6 37 78 4 c44 1 85 4 92 5 10 2 12 -17 10
-75z m326 -11 l-7 -72 -52 0 c-29 0 -67 3 -84 6 l-31 7 0 68 0 68 83 3 c45 2
85 0 90 -3 4 -3 4 -38 1 -77z m-650 -14 c4 -37 3 -69 -1 -71 -5 -3 -42 -8 -84
-12 l-76 -7 -10 72 c-6 50 -6 73 1 75 28 8 152 20 157 15 4 -3 9 -35 13 -72z
m924 65 c53 -4 72 -9 68 -19 -3 -7 -8 -40 -12 -74 l-7 -62 -71 6 c-99 10 -109
14 -102 39 3 12 6 46 6 76 0 50 1 53 23 47 12 -3 55 -9 95 -13z m399 -66 c5
-6 -22 -126 -31 -134 -8 -8 -147 14 -158 25 -4 4 -2 39 4 77 l11 71 84 -18
c47 -9 87 -19 90 -21z m-1647 -24 c6 -32 12 -64 13 -72 1 -10 -22 -20 -78 -32
-44 -10 -83 -15 -86 -11 -7 8 -39 135 -35 139 5 5 130 31 153 32 19 1 23 -7
33 -56z m-316 -84 c10 -39 16 -71 14 -73 -1 -1 -30 -10 -63 -19 -33 -8 -68
-19 -77 -22 -13 -5 -21 7 -39 65 -25 78 -22 89 31 91 14 0 41 7 60 14 19 7 40
14 45 14 6 1 19 -31 29 -70z m2219 46 c42 -9 77 -19 77 -22 0 -3 -10 -36 -21
-75 -19 -62 -24 -69 -43 -64 -11 4 -48 14 -81 22 -33 9 -61 17 -63 19 -2 1 5
35 14 74 10 47 20 71 28 68 6 -3 46 -12 89 -22z m-2529 -132 c10 -32 20 -63
22 -68 3 -6 -26 -21 -63 -34 -38 -13 -73 -26 -79 -28 -13 -5 -70 124 -60 135
10 9 126 50 147 51 10 1 21 -18 33 -56z m2854 27 c83 -27 84 -28 43 -122 l-20
-47 -68 26 c-37 14 -76 28 -85 30 -22 6 -22 2 0 60 11 26 22 56 26 67 3 10 12
16 19 14 6 -3 45 -15 85 -28z m-1248 0 c282 -19 489 -52 760 -121 717 -184
1383 -566 1902 -1092 560 -565 926 -1291 1072 -2120 109 -617 79 -1264 -84
-1817 -47 -161 -64 -210 -122 -355 -151 -375 -322 -684 -536 -970 -337 -449
-712 -783 -1176 -1049 -654 -376 -1500 -580 -2228 -538 -897 53 -1703 354
-2373 889 -144 114 -439 409 -549 548 -426 537 -720 1160 -840 1780 -90 461
-97 1004 -21 1467 92 562 257 1016 531 1465 254 418 546 748 937 1061 229 183
585 396 872 522 594 260 1223 372 1855 330z m-1915 -137 c10 -26 22 -54 28
-61 13 -17 6 -23 -75 -60 l-68 -31 -34 62 c-21 37 -32 65 -26 71 13 13 144 74
151 70 3 -2 14 -25 24 -51z m3509 -5 c45 -23 45 -26 15 -89 -23 -47 -34 -60
-47 -56 -26 8 -132 53 -137 59 -5 5 28 108 40 128 5 9 75 -14 129 -42z m-3797
-152 c24 -49 29 -67 20 -74 -9 -8 -94 -53 -128 -70 -7 -3 -74 107 -74 120 0 9
124 86 140 87 6 1 25 -28 42 -63z m4073 14 c33 -17 60 -33 60 -35 0 -8 -51
-108 -61 -121 -6 -8 -30 0 -79 25 -38 20 -70 40 -70 44 0 19 65 117 78 117 7
0 39 -14 72 -30z m-4380 -118 c0 -5 15 -33 34 -64 l34 -57 -69 -45 -68 -45
-45 57 c-25 31 -46 60 -46 64 0 7 141 98 153 98 4 0 7 -4 7 -8z m4608 -21 c15
-10 46 -28 70 -40 23 -12 42 -25 42 -30 0 -5 -18 -36 -40 -69 l-41 -61 -67 45
c-37 25 -68 47 -70 48 -4 4 69 126 75 126 3 0 17 -8 31 -19z m-4850 -221 l42
-59 -64 -46 c-35 -25 -67 -45 -70 -45 -7 0 -37 33 -79 86 -17 23 -17 23 49 73
37 28 70 51 74 51 3 0 25 -27 48 -60z m5222 -59 c-5 -9 -27 -36 -49 -61 l-39
-45 -29 28 c-16 15 -33 27 -39 27 -19 1 -56 40 -51 55 4 8 23 37 43 64 l37 49
68 -51 c53 -39 66 -54 59 -66z m-5481 -136 c24 -31 41 -59 39 -63 -2 -4 -28
-31 -59 -59 l-55 -52 -55 55 -54 55 65 59 c36 33 68 59 71 60 4 0 25 -25 48
-55z m5675 -7 c33 -29 63 -53 65 -55 4 -3 -92 -113 -100 -113 -3 0 -33 25 -67
56 l-62 56 46 54 c26 30 49 54 51 54 3 0 33 -23 67 -52z m-5906 -221 l52 -53
-54 -53 -54 -54 -56 44 c-31 24 -56 48 -56 54 0 10 100 115 110 115 3 0 29
-24 58 -53z m6150 -6 l51 -58 -54 -47 c-29 -25 -57 -46 -61 -46 -12 0 -104 93
-104 104 0 14 92 106 106 106 6 0 34 -26 62 -59z m208 -225 l47 -59 -59 -52
c-32 -29 -59 -52 -60 -52 0 1 -24 28 -53 59 l-53 57 43 38 c24 21 50 45 59 55
8 9 18 15 21 15 4 -1 28 -29 55 -61z m-6576 2 l59 -51 -46 -56 c-25 -31 -52
-55 -58 -55 -7 1 -37 20 -68 44 l-56 42 51 64 c28 35 53 64 55 64 3 0 31 -23
63 -52z m6759 -247 c24 -33 44 -61 45 -64 0 -3 -29 -25 -66 -50 l-67 -44 -40
57 c-23 32 -41 62 -40 67 0 8 109 92 120 93 3 0 25 -27 48 -59z m-6896 -55
c-6 -9 -68 -99 -80 -115 -5 -7 -115 71 -120 85 -2 7 14 40 36 73 l41 61 65
-47 c37 -26 61 -51 58 -57z m7067 -208 c22 -35 40 -67 40 -73 0 -10 -111 -75
-129 -75 -9 0 -81 113 -81 128 0 8 110 80 123 81 4 1 25 -27 47 -61z m-7236
-39 c8 -7 -59 -129 -70 -129 -11 0 -134 75 -134 82 0 4 18 36 41 72 l41 65 56
-41 c32 -22 61 -44 66 -49z m7384 -234 c18 -36 32 -70 32 -76 0 -8 -118 -69
-135 -69 -10 0 -66 122 -62 134 4 10 113 75 127 76 3 0 20 -29 38 -65z m-7518
-20 c0 -5 -60 -127 -65 -133 -2 -2 -126 61 -143 74 -2 1 13 31 33 68 l37 65
69 -34 c38 -20 69 -38 69 -40z m-187 -218 c31 -13 60 -27 64 -31 5 -5 -34
-102 -54 -134 -2 -4 -106 33 -134 48 -17 10 -17 13 5 63 12 28 26 60 29 71 4
10 13 16 20 13 6 -3 38 -17 70 -30z m7836 -38 c18 -39 31 -72 29 -74 -19 -14
-152 -55 -159 -48 -8 8 -49 119 -49 134 0 4 15 11 33 14 17 4 48 16 67 26 19
10 38 18 41 19 4 0 21 -32 38 -71z m-7965 -234 c31 -14 63 -25 71 -25 19 0 19
0 -6 -82 -11 -38 -27 -72 -35 -75 -20 -7 -144 38 -144 53 0 13 50 154 55 154
1 0 28 -11 59 -25z m8072 -55 c13 -36 24 -70 24 -76 0 -9 -127 -54 -152 -54
-13 0 -51 141 -41 151 12 12 115 48 132 46 7 -1 24 -31 37 -67z m-8145 -255
c71 -11 71 -11 52 -98 -20 -87 -19 -87 -113 -60 -67 18 -67 18 -44 106 20 76
21 79 42 68 9 -5 38 -12 63 -16z m8232 -55 c10 -40 16 -78 13 -85 -4 -10 -143
-42 -151 -34 -6 7 -43 154 -40 157 6 6 139 39 150 37 5 -1 17 -34 28 -75z
m-8285 -256 c23 -4 45 -10 48 -15 3 -5 0 -45 -7 -89 -11 -71 -15 -80 -33 -80
-37 1 -137 25 -138 33 0 4 5 44 12 88 l13 81 31 -6 c17 -3 50 -8 74 -12z
m8342 9 c0 -5 6 -45 14 -90 l13 -83 -31 -5 c-17 -4 -54 -7 -81 -8 l-49 -2 -13
70 c-7 39 -12 77 -11 85 4 19 158 51 158 33z m-8396 -339 l59 -7 -6 -80 c-4
-44 -8 -82 -10 -84 -3 -2 -40 0 -83 4 l-79 8 3 45 c1 25 5 65 8 88 5 39 8 43
28 38 12 -3 48 -8 80 -12z m8456 -70 c0 -29 3 -59 6 -67 6 -15 0 -17 -117 -33
l-45 -6 -10 81 -9 81 30 5 c16 3 50 9 75 14 57 10 70 -4 70 -75z m-8422 -331
l3 -81 -81 -4 c-45 -2 -84 -1 -86 1 -2 2 -4 42 -4 88 l0 84 83 -3 82 -3 3 -82z
m8442 -2 l0 -88 -82 2 -83 3 -3 80 -3 81 33 4 c18 2 57 5 86 5 l52 2 0 -89z
m-8442 -317 l3 -81 -78 -5 c-43 -3 -81 -4 -85 -1 -5 2 -8 40 -8 83 l0 79 53 4
c28 2 66 3 82 3 l30 -1 3 -81z m8440 -9 c-2 -47 -6 -86 -9 -89 -2 -2 -38 2
-79 8 l-75 12 -3 77 -3 77 87 0 87 0 -5 -85z m-8424 -242 c3 -10 8 -40 11 -68
3 -27 8 -60 10 -71 4 -20 -1 -23 -58 -33 -107 -19 -101 -22 -116 75 -7 47 -11
88 -8 91 6 5 92 19 134 22 13 0 24 -6 27 -16z m8389 1 c20 -6 21 -24 6 -111
-9 -51 -15 -63 -30 -63 -27 0 -123 21 -132 29 -4 4 -4 42 -1 85 l7 77 66 -6
c36 -4 74 -9 84 -11z m-101 -309 c30 -4 60 -10 65 -13 10 -7 -14 -153 -28
-166 -6 -7 -139 30 -150 41 -4 5 1 40 11 78 11 39 19 72 19 74 1 2 7 1 14 -2
8 -3 39 -8 69 -12z m-8228 -72 c9 -42 13 -79 9 -83 -9 -8 -123 -40 -140 -40
-10 0 -43 118 -43 154 0 10 21 19 63 29 97 24 92 26 111 -60z m8154 -240 c84
-20 82 -10 41 -143 -24 -80 -24 -80 -114 -47 -39 15 -59 28 -58 37 4 29 48
170 53 170 3 0 38 -7 78 -17z m-8073 -79 c15 -48 23 -90 18 -94 -4 -4 -38 -16
-75 -27 l-66 -20 -16 41 c-17 48 -36 116 -36 133 0 10 103 49 137 52 6 1 24
-38 38 -85z m7972 -268 l71 -28 -37 -90 c-26 -65 -40 -88 -51 -84 -24 7 -130
53 -135 58 -3 2 7 34 21 69 15 35 30 74 35 87 5 13 13 22 17 20 4 -2 39 -16
79 -32z m-7865 -56 c15 -41 28 -78 28 -82 0 -11 -133 -69 -141 -61 -10 10 -69
158 -69 172 0 6 8 11 18 12 9 0 35 9 57 19 65 31 76 25 107 -60z m134 -305
c21 -41 36 -77 33 -79 -9 -8 -129 -66 -138 -66 -10 0 -88 146 -81 153 11 10
126 66 137 67 6 0 28 -34 49 -75z m7597 41 c37 -16 67 -33 67 -39 0 -5 -18
-43 -41 -83 l-40 -74 -70 35 c-38 20 -69 37 -69 40 0 13 74 155 80 153 3 -2
36 -16 73 -32z m-7445 -332 c24 -42 42 -77 40 -78 -18 -13 -120 -66 -126 -66
-15 0 -104 142 -95 150 9 9 125 70 133 70 3 0 24 -34 48 -76z m7292 39 c33
-21 60 -41 60 -44 0 -4 -21 -39 -46 -77 l-46 -71 -52 30 c-28 16 -57 33 -65
38 -11 7 -5 24 30 85 23 42 47 76 51 76 4 0 35 -17 68 -37z m-220 -259 c8 -8
33 -27 57 -41 24 -13 43 -29 43 -33 0 -16 -84 -130 -96 -130 -15 0 -114 79
-114 91 0 11 83 128 91 129 4 0 12 -7 19 -16z m-6906 -56 l46 -63 -33 -28
c-17 -16 -44 -37 -58 -47 l-26 -19 -48 65 c-47 64 -47 66 -29 84 22 22 86 68
96 69 4 1 27 -27 52 -61z m6760 -230 c30 -24 55 -50 55 -58 0 -8 -22 -39 -48
-69 l-49 -54 -56 48 c-31 26 -56 51 -56 56 0 12 83 117 93 118 4 1 32 -18 61
-41z m-6571 -24 c26 -31 47 -60 47 -64 0 -10 -109 -105 -113 -99 -1 2 -24 29
-50 61 -26 31 -47 59 -47 62 0 9 95 96 105 96 6 0 32 -25 58 -56z m6375 -227
l53 -54 -52 -56 c-29 -31 -56 -57 -61 -57 -5 0 -34 23 -63 51 l-55 52 57 58
c31 33 60 59 63 59 3 0 29 -24 58 -53z m-6169 -11 l54 -54 -48 -56 c-26 -31
-50 -56 -54 -56 -4 0 -33 26 -65 59 l-58 58 54 51 c29 29 55 52 58 52 3 0 30
-24 59 -54z m5901 -163 c0 -5 21 -30 46 -57 25 -26 43 -54 41 -60 -3 -7 -30
-34 -61 -61 l-56 -47 -47 52 c-27 29 -49 57 -51 61 -4 9 108 118 121 119 4 0
7 -3 7 -7z m-5687 -48 c29 -25 55 -45 59 -45 5 0 8 -5 8 -10 0 -13 -82 -118
-93 -119 -14 -1 -126 93 -126 107 -1 6 2 12 7 12 4 0 25 23 47 50 22 28 41 50
43 50 2 0 27 -20 55 -45z m254 -215 c34 -25 62 -49 62 -53 1 -11 -72 -127 -80
-127 -5 0 -113 81 -133 100 -8 8 72 133 83 128 3 -2 34 -23 68 -48z m5232 -7
c23 -29 41 -56 41 -60 -1 -10 -126 -103 -138 -103 -11 0 -92 105 -92 118 0 5
10 13 23 19 12 6 42 27 66 47 24 20 47 35 51 34 4 -2 26 -26 49 -55z m-4966
-185 c34 -22 64 -43 66 -44 4 -4 -69 -113 -82 -121 -7 -4 -137 74 -137 82 0
12 74 125 82 125 5 0 37 -19 71 -42z m4694 -22 l42 -64 -65 -41 c-36 -23 -69
-41 -74 -41 -13 0 -94 124 -84 127 5 2 34 21 64 43 30 22 60 39 65 39 6 1 29
-28 52 -63z m-4357 -176 c0 -12 -48 -109 -62 -128 -8 -9 -23 -5 -67 19 -89 50
-87 47 -46 122 l37 66 69 -34 c38 -20 69 -40 69 -45z m4078 6 c46 -74 48 -70
-49 -114 l-66 -29 -34 61 c-19 33 -35 64 -37 68 -3 6 123 76 139 78 4 0 25
-29 47 -64z m-3826 -124 l46 -21 -30 -74 -30 -75 -79 37 c-87 40 -85 33 -43
126 l25 54 32 -14 c18 -7 53 -22 79 -33z m3536 -27 l32 -66 -62 -29 c-106 -48
-105 -48 -128 5 -38 88 -38 86 37 122 37 17 73 32 78 32 6 1 25 -28 43 -64z
m-3260 -80 c35 -10 64 -21 67 -24 8 -15 -42 -146 -56 -144 -18 2 -136 47 -144
54 -5 5 5 39 34 113 7 16 17 26 24 23 7 -3 41 -13 75 -22z m2943 -47 c13 -35
24 -67 24 -71 0 -13 -156 -60 -165 -50 -9 11 -53 134 -48 138 6 6 133 43 149
44 11 1 24 -19 40 -61z m-2636 -49 c28 -6 53 -14 57 -18 11 -10 -24 -151 -38
-151 -12 0 -147 40 -152 45 -2 2 7 35 19 75 20 62 26 70 44 65 11 -3 43 -10
70 -16z m2321 -58 c14 -40 23 -75 21 -77 -7 -7 -152 -34 -162 -30 -15 5 -49
112 -42 129 3 8 29 19 58 25 30 7 61 17 69 22 24 16 30 9 56 -69z m-2026 -7
c41 -8 77 -17 79 -20 5 -4 -16 -145 -22 -151 -2 -1 -40 5 -86 14 -82 16 -83
17 -77 43 3 15 8 50 12 79 4 28 9 51 13 51 3 0 40 -7 81 -16z m1696 -54 c23
-97 25 -94 -68 -112 -46 -8 -84 -14 -86 -13 -1 1 -9 35 -16 74 -16 82 -21 76
72 96 82 18 84 17 98 -45z m-1352 -5 l59 -7 -7 -51 c-3 -29 -6 -62 -6 -74 0
-27 -19 -29 -117 -12 l-63 11 5 52 c11 94 13 98 43 92 15 -2 53 -8 86 -11z
m1030 -66 c3 -40 5 -74 3 -76 -5 -5 -170 -24 -174 -20 -1 2 -5 35 -9 74 l-7
71 44 6 c53 7 99 12 120 15 13 1 17 -13 23 -70z m-701 41 l48 0 -3 -77 -3 -76
-85 2 c-47 1 -86 4 -89 6 -2 2 0 39 4 81 l7 76 36 -6 c21 -3 59 -6 85 -6z
m367 -74 l0 -74 -76 -7 c-42 -4 -80 -3 -84 2 -9 10 -20 140 -12 148 3 3 43 5
89 5 l83 0 0 -74z"/>
<path d="M4855 9014 c-513 -52 -791 -116 -1185 -271 -573 -226 -1098 -603
-1504 -1078 -298 -348 -533 -756 -685 -1190 -78 -219 -159 -575 -198 -865 -26
-193 -26 -808 0 -985 93 -631 300 -1170 648 -1685 417 -619 940 -1048 1641
-1346 372 -159 814 -267 1248 -305 185 -16 569 -6 768 21 527 70 1098 267
1538 532 444 266 796 598 1131 1066 165 230 370 628 479 930 95 258 149 477
185 746 30 221 37 640 15 886 -115 1284 -749 2314 -1826 2971 -483 294 -1022
482 -1580 550 -156 19 -573 33 -675 23z m-765 -2609 c0 -787 3 -1095 11 -1095
10 0 465 442 1159 1125 307 302 556 547 925 908 l160 157 673 0 c384 0 672 -4
670 -9 -1 -5 -67 -68 -145 -139 -151 -141 -408 -392 -1364 -1335 -334 -328
-618 -607 -632 -618 l-26 -20 277 -322 c344 -401 1599 -1865 1825 -2130 92
-108 167 -198 167 -201 0 -3 -276 -6 -612 -5 l-613 1 -100 115 c-158 183 -431
497 -810 929 -628 717 -749 857 -790 905 -22 27 -45 47 -51 46 -9 -1 -475
-436 -701 -654 l-23 -22 0 -661 0 -660 -490 0 -490 0 0 2390 0 2390 490 0 490
0 0 -1095z"/>
<path d="M8711 9364 c0 -11 3 -14 6 -6 3 7 2 16 -1 19 -3 4 -6 -2 -5 -13z"/>
<path d="M1432 9303 c23 -21 57 -55 76 -75 20 -21 41 -38 48 -38 7 0 18 -9 24
-20 9 -17 21 -20 74 -20 51 0 70 5 100 25 20 14 39 25 42 25 3 0 12 7 20 15
14 13 9 15 -46 15 -81 0 -110 19 -110 71 l0 39 -135 0 -135 0 42 -37z"/>
<path d="M2186 9300 c-11 -22 -22 -40 -25 -40 -3 0 -21 -14 -40 -30 -18 -17
-38 -30 -42 -30 -5 0 -9 -7 -9 -15 0 -7 -6 -18 -13 -22 -7 -4 -29 -31 -50 -59
-56 -78 -104 -105 -206 -116 -47 -5 -145 -8 -219 -6 -125 3 -135 5 -152 26
-10 12 -22 22 -27 22 -6 0 -26 17 -46 38 -20 20 -55 54 -78 76 -42 38 -42 38
-103 32 -34 -4 -119 -9 -191 -12 -191 -8 -175 1 -175 -99 l0 -85 -405 0 -405
0 0 -375 0 -375 115 0 115 0 0 -270 0 -270 210 0 210 0 0 -105 0 -105 -210 0
-210 0 0 -22 c0 -22 2 -23 92 -20 51 2 117 1 146 -3 l52 -6 0 -80 c0 -56 -4
-79 -12 -79 -15 0 -58 -69 -75 -120 -6 -19 -12 -61 -12 -92 -1 -66 -11 -75
-91 -85 -52 -6 -64 -17 -30 -26 18 -5 20 -14 20 -96 l0 -91 -70 0 c-52 0 -70
-3 -70 -14 0 -16 45 -66 60 -66 6 0 10 -31 10 -82 l0 -81 -37 -34 c-21 -18
-46 -33 -55 -33 -10 0 -18 -7 -18 -15 0 -9 9 -15 21 -15 26 0 20 -24 -7 -29
-10 -2 -22 -8 -26 -15 -4 -6 -8 -124 -8 -263 0 -165 -4 -262 -11 -280 -7 -15
-18 -43 -26 -62 -13 -28 -13 -52 -4 -145 5 -61 13 -203 16 -316 3 -135 10
-224 20 -260 8 -30 16 -77 17 -105 0 -27 5 90 9 260 8 332 29 562 75 810 121
662 380 1311 737 1845 341 511 856 1026 1365 1366 81 54 151 102 157 106 5 4
-54 8 -130 8 l-140 0 -19 -40z"/>
<path d="M8610 9183 c-63 -5 -75 -10 -61 -27 6 -7 18 -38 27 -67 28 -94 39
-89 122 59 l24 42 -34 -2 c-18 -1 -53 -3 -78 -5z"/>
<path d="M8802 8448 c133 -149 360 -434 450 -568 16 -24 17 -21 17 93 l1 117
485 0 485 0 0 24 c0 22 -4 24 -72 29 -40 3 -95 11 -123 17 -27 6 -144 16 -260
21 -115 5 -241 16 -280 24 -43 9 -71 11 -73 5 -2 -6 -70 -10 -163 -10 l-159 0
0 45 c0 25 5 45 10 45 6 0 10 25 10 56 0 52 2 56 30 65 l29 11 -34 35 c-19 20
-37 44 -40 54 -6 18 -19 19 -197 19 l-190 0 74 -82z"/>
<path d="M9398 8523 c6 -2 18 -2 25 0 6 3 1 5 -13 5 -14 0 -19 -2 -12 -5z"/>
<path d="M10075 8405 c-55 -7 -109 -15 -120 -18 -11 -3 -32 -8 -47 -12 -16 -3
-28 -12 -28 -20 0 -11 26 -15 133 -18 72 -2 153 -9 180 -14 l47 -10 0 54 0 53
-32 -1 c-18 -1 -78 -7 -133 -14z"/>
<path d="M9292 7818 c117 -180 269 -457 338 -618 18 -41 38 -88 46 -105 109
-246 213 -575 297 -950 152 -670 138 -1537 -33 -2209 -203 -792 -607 -1523
-1203 -2174 -697 -763 -1561 -1253 -2592 -1471 -165 -35 -463 -78 -625 -90
-73 -5 296 -9 1008 -10 l1122 -1 0 315 0 315 430 0 430 0 0 305 0 305 855 0
855 0 0 39 c0 21 -3 52 -6 68 l-6 30 -246 7 c-136 4 -375 8 -532 10 -157 1
-295 6 -307 10 -19 7 -23 16 -23 50 0 35 6 47 33 72 31 29 113 74 135 74 5 0
15 24 22 53 20 91 18 87 60 87 22 0 49 -4 62 -9 13 -5 43 -15 68 -22 25 -7 62
-24 82 -37 22 -14 63 -27 100 -32 35 -5 81 -14 103 -19 50 -13 352 -14 360 -2
3 5 1 12 -5 16 -5 3 -10 32 -10 63 0 53 3 61 45 112 25 30 44 59 42 65 -2 5
-51 13 -108 17 -57 4 -121 13 -141 19 -20 6 -47 9 -60 5 -19 -5 -371 -36 -415
-36 -9 0 -13 15 -13 43 l0 43 168 14 c205 16 366 16 495 -1 53 -6 99 -10 101
-8 3 2 7 16 11 32 l7 27 -306 0 -306 0 0 370 0 370 305 0 305 0 0 90 0 90
-170 0 -170 0 0 45 0 45 170 0 170 0 0 65 0 65 -130 0 -130 0 0 55 0 55 130 0
130 0 0 70 0 70 -100 0 -100 0 0 50 0 50 100 0 100 0 0 110 0 109 -57 3 -58 3
-3 54 c-5 92 31 291 53 291 11 0 13 93 10 548 -4 606 -19 964 -41 999 -8 12
-14 45 -14 73 0 49 0 50 31 50 28 0 31 3 25 23 -3 12 -6 48 -6 80 0 56 -1 58
-31 64 -31 6 -49 33 -49 75 0 11 -16 55 -35 98 -24 53 -35 92 -35 124 l0 46
89 0 90 0 3 43 3 42 -65 12 c-36 6 -81 12 -101 12 -40 1 -59 18 -79 71 -7 19
-26 61 -42 92 -15 32 -28 74 -28 94 l0 37 119 -6 c65 -3 123 -2 128 2 20 12
33 50 33 94 l0 44 -122 7 c-211 11 -228 15 -228 42 0 13 -5 24 -10 24 -6 0
-42 31 -80 70 -66 65 -70 72 -70 114 0 25 4 47 8 50 4 2 69 8 144 12 119 6
139 5 169 -11 19 -10 42 -22 51 -26 10 -5 29 -5 43 1 15 6 51 10 81 10 l54 0
0 38 0 38 -122 14 c-71 9 -187 14 -275 12 -123 -2 -159 0 -183 13 -16 9 -30
21 -30 27 0 15 -109 235 -137 277 -15 22 -23 49 -23 77 l0 44 188 0 c129 0
205 -4 242 -14 72 -19 310 -11 310 11 0 11 -80 13 -456 13 l-456 0 14 -22z"/>
<path d="M9580 7744 c0 -4 8 -23 19 -43 10 -20 37 -75 61 -123 25 -52 50 -90
62 -94 10 -3 78 -4 151 -2 86 2 159 -2 209 -11 43 -8 81 -11 85 -7 13 12 8
187 -6 228 l-12 37 -142 -6 c-112 -4 -155 -2 -202 11 -57 15 -225 23 -225 10z"/>
<path d="M150 7250 c0 -6 -32 -10 -75 -10 l-75 0 0 -64 0 -64 38 9 c20 5 58 9
85 9 l47 0 0 65 c0 37 -4 65 -10 65 -5 0 -10 -4 -10 -10z"/>
<path d="M9841 7231 l-35 -6 51 -42 c42 -36 64 -46 129 -59 44 -9 84 -21 91
-26 6 -5 46 -12 87 -15 67 -5 76 -4 76 11 0 9 -9 27 -21 39 -12 12 -24 31 -29
42 -7 18 -15 20 -103 17 -86 -4 -100 -2 -147 22 -28 14 -55 25 -58 25 -4 -1
-23 -4 -41 -8z"/>
<path d="M10190 6768 c-19 -6 -63 -8 -97 -5 l-62 5 20 -52 c23 -57 32 -66 70
-66 14 0 47 -3 73 -6 l46 -7 0 72 c0 39 -3 71 -7 70 -5 0 -24 -5 -43 -11z"/>
<path d="M10154 6352 c8 -15 20 -55 26 -90 11 -55 15 -62 36 -62 23 0 24 2 24
90 l0 90 -50 0 -51 0 15 -28z"/>
<path d="M137 4575 c-5 -154 -13 -298 -18 -321 -6 -23 -8 -82 -5 -135 3 -52 9
-158 12 -236 5 -133 7 -143 25 -143 15 0 19 -7 19 -31 0 -51 29 -149 71 -235
41 -86 56 -135 69 -224 10 -68 20 -112 30 -125 5 -5 14 -39 20 -75 7 -36 17
-69 21 -74 5 -6 9 -52 9 -103 l0 -92 -46 -21 c-26 -11 -53 -20 -60 -20 -20 0
-17 -15 11 -66 14 -25 25 -53 25 -63 0 -10 7 -24 15 -31 8 -7 15 -18 15 -24 0
-6 8 -18 18 -27 9 -8 27 -29 40 -46 13 -17 39 -39 57 -49 19 -10 35 -22 35
-26 0 -5 6 -8 13 -8 7 0 23 -9 35 -20 12 -11 24 -20 28 -20 3 0 26 -13 51 -30
24 -16 47 -30 51 -30 4 0 15 -8 23 -18 9 -11 27 -26 40 -36 22 -15 24 -24 27
-117 5 -137 3 -139 -136 -139 -58 0 -122 5 -141 12 -20 6 -60 19 -89 30 -29
10 -71 18 -93 18 l-41 0 19 -32 c19 -32 21 -33 109 -39 49 -4 145 -7 214 -8
85 -1 133 -6 151 -15 15 -8 68 -17 118 -21 l91 -7 0 -83 c0 -76 2 -86 27 -114
l27 -31 248 0 248 0 -136 158 c-136 156 -355 440 -451 582 -445 661 -731 1502
-781 2295 -7 114 -8 106 -15 -160z"/>
<path d="M10210 4045 c0 -24 5 -35 15 -35 10 0 15 11 15 35 0 24 -5 35 -15 35
-10 0 -15 -11 -15 -35z"/>
<path d="M150 2338 l0 -128 126 0 c111 0 124 2 110 15 -8 8 -17 15 -20 15 -3
0 -24 13 -48 29 -49 33 -108 97 -143 156 l-24 40 -1 -127z"/>
<path d="M10217 1906 c-4 -10 -5 -21 -2 -24 9 -9 17 6 13 25 -3 17 -4 17 -11
-1z"/>
<path d="M9370 1769 c-9 -42 -17 -59 -29 -59 -27 -1 -85 -36 -72 -44 6 -4 132
-6 279 -5 147 2 360 1 475 -2 l207 -6 0 36 0 36 -239 -3 c-157 -2 -260 1 -298
8 -32 7 -84 16 -117 20 -34 5 -71 17 -88 30 -16 11 -46 27 -67 35 l-39 13 -12
-59z"/>
<path d="M150 1812 c0 -5 62 -11 138 -14 75 -3 164 -12 197 -21 173 -44 185
-45 185 -17 0 11 -7 20 -15 20 -9 0 -28 6 -43 14 -32 16 -462 32 -462 18z"/>
<path d="M1530 1439 c0 -237 1 -256 20 -284 11 -16 20 -40 20 -53 0 -13 10
-52 22 -86 l22 -63 63 -18 c81 -23 123 -49 123 -75 0 -11 16 -44 35 -73 19
-28 60 -99 92 -157 l59 -105 64 0 c36 0 269 -1 518 -3 l452 -2 0 -165 0 -165
898 1 c577 1 856 5 782 10 -653 48 -1250 213 -1846 512 -445 223 -833 501
-1201 861 l-123 119 0 -254z"/>
<path d="M1612 783 c2 -31 8 -58 13 -60 11 -3 55 56 55 75 0 10 -49 42 -65 42
-3 0 -5 -26 -3 -57z"/>
<path d="M1750 671 c0 -21 6 -30 22 -34 30 -8 31 -5 11 32 -22 39 -33 39 -33
2z"/>
<path d="M8820 365 l0 -175 95 0 95 0 0 175 0 175 -95 0 -95 0 0 -175z"/>
</g>
</svg>
